<svg id="svg" version="1.1" xmlns="http://www.w3.org/2000/svg" xmlns:xlink="http://www.w3.org/1999/xlink" width="400" height="354.89614243323444" viewBox="0, 0, 400,354.89614243323444"><g id="svgg"><path id="path0" d="M36.202 43.343 C 25.772 49.634,10.551 78.222,7.953 96.401 C 4.182 122.790,11.718 137.503,47.564 173.736 C 92.208 218.861,105.567 242.902,101.689 271.140 C 100.513 279.705,102.584 279.824,109.650 271.595 C 113.479 267.136,113.419 267.229,117.229 259.781 C 134.730 225.564,125.501 188.447,86.920 137.888 C 52.797 93.171,41.784 72.428,40.094 49.689 C 39.559 42.491,39.034 41.635,36.202 43.343 M194.676 60.655 C 191.716 61.756,165.937 72.877,160.228 75.517 C 154.727 78.061,151.692 79.761,152.037 80.106 C 152.591 80.660,168.748 75.522,191.191 67.656 C 197.612 65.405,197.639 65.407,207.682 68.893 C 249.089 83.263,254.417 83.847,224.312 70.717 C 199.313 59.814,198.074 59.393,194.676 60.655 M155.280 117.793 C 148.672 118.247,149.246 114.865,149.246 153.327 C 149.246 192.724,148.392 188.912,157.257 189.117 C 166.256 189.326,166.217 189.375,166.460 177.538 L 166.637 168.884 167.796 167.849 C 168.811 166.943,169.230 166.814,171.168 166.808 C 188.337 166.761,197.691 159.526,199.507 144.891 C 201.080 132.214,194.316 121.714,182.479 118.460 C 179.604 117.669,163.015 117.263,155.280 117.793 M274.564 117.830 C 269.385 118.355,269.678 116.073,269.813 154.925 C 269.934 189.816,269.737 187.507,272.683 188.632 C 275.343 189.648,302.532 189.260,306.655 188.147 C 322.975 183.741,330.054 167.660,326.513 143.035 C 324.442 128.631,316.320 120.038,302.858 118.009 C 299.164 117.452,279.515 117.328,274.564 117.830 M213.070 118.702 C 210.489 119.838,210.648 117.698,210.648 151.360 L 210.648 181.544 211.646 183.577 C 212.820 185.967,214.548 187.508,217.025 188.373 C 219.768 189.332,248.771 189.318,251.525 188.357 C 255.353 187.021,258.037 183.384,258.131 179.406 C 258.223 175.461,257.735 175.333,242.591 175.333 C 226.077 175.333,226.661 175.637,226.859 167.143 C 226.972 162.299,226.991 162.198,227.958 161.232 L 228.941 160.248 238.137 160.071 C 250.038 159.841,250.207 159.746,250.217 153.221 C 250.226 146.793,250.261 146.813,238.250 146.584 L 228.941 146.406 227.958 145.423 C 227.001 144.467,226.971 144.317,226.860 139.922 C 226.656 131.898,225.996 132.261,241.218 132.032 C 256.167 131.807,256.078 131.851,256.078 124.723 C 256.078 120.931,255.746 119.796,254.371 118.883 C 253.228 118.124,214.765 117.956,213.070 118.702 M341.549 118.703 C 339.176 119.748,339.282 118.106,339.389 151.994 C 339.502 187.887,339.156 185.575,344.809 188.180 C 348.364 189.818,377.980 189.558,381.362 187.859 C 386.080 185.490,388.212 178.349,384.859 176.150 C 383.978 175.572,382.626 175.493,370.794 175.333 L 357.705 175.155 356.670 173.996 L 355.634 172.837 355.634 167.856 C 355.634 159.937,355.047 160.340,366.992 160.086 C 378.789 159.835,378.882 159.781,378.882 153.122 C 378.882 146.790,378.538 146.596,367.311 146.589 C 355.456 146.582,355.634 146.694,355.634 139.227 C 355.634 131.842,355.251 132.032,370.122 132.032 C 384.188 132.032,384.407 131.926,384.679 125.003 C 384.824 121.298,384.460 119.986,383.016 119.006 C 381.733 118.134,343.475 117.855,341.549 118.703 M176.518 131.025 C 183.108 132.677,184.935 146.185,179.259 151.288 C 175.470 154.695,168.654 155.039,167.081 151.903 C 166.255 150.255,166.146 134.533,166.948 132.614 C 167.845 130.467,171.724 129.823,176.518 131.025 M299.734 131.030 C 306.916 132.803,310.009 139.569,310.008 153.505 C 310.008 170.448,306.100 176.058,294.218 176.173 C 286.059 176.253,286.630 177.771,286.486 155.634 C 286.327 131.479,286.367 131.197,290.004 130.592 C 291.890 130.278,297.760 130.542,299.734 131.030 M33.823 183.482 C 26.509 187.941,17.271 208.913,17.245 221.118 C 17.213 235.257,21.389 242.302,42.591 263.886 C 56.412 277.956,60.717 282.878,65.818 290.444 C 73.189 301.378,75.954 309.463,75.954 320.084 C 75.954 328.360,77.786 328.627,82.972 321.106 C 92.913 306.689,93.400 288.113,84.342 268.908 C 80.121 259.960,76.655 254.649,62.955 236.143 C 45.229 212.198,39.703 201.660,37.775 188.121 C 37.025 182.854,36.283 181.982,33.823 183.482 M219.033 202.135 C 206.086 204.480,199.354 213.505,199.314 228.571 C 199.258 249.657,211.825 258.313,234.783 253.002 C 241.272 251.501,241.171 251.704,241.171 240.106 C 241.171 225.890,240.045 224.498,228.729 224.731 L 223.188 224.845 222.153 226.004 C 219.503 228.972,221.258 233.075,225.747 234.408 C 228.980 235.368,229.636 236.239,229.636 239.568 C 229.636 243.771,228.099 245.077,223.452 244.824 C 215.356 244.383,211.540 239.063,211.540 228.217 C 211.540 214.077,218.422 208.890,231.273 213.343 C 236.166 215.039,239.146 213.740,239.814 209.622 C 240.613 204.700,228.657 200.392,219.033 202.135 M263.611 202.508 C 253.110 205.052,247.885 213.625,247.942 228.217 C 248.003 243.647,253.715 252.040,265.509 254.028 C 283.612 257.081,295.059 241.692,290.879 219.923 C 288.314 206.568,276.912 199.285,263.611 202.508 M168.712 202.714 C 167.135 203.068,165.531 204.412,164.961 205.856 C 163.262 210.164,150.793 248.971,150.738 250.125 C 150.460 255.910,160.097 255.018,162.040 249.079 C 163.874 243.471,164.449 243.126,171.961 243.125 C 179.431 243.124,179.519 243.166,181.899 247.884 C 184.414 252.872,185.380 253.594,189.534 253.594 C 195.927 253.594,195.932 253.277,189.839 234.350 C 187.277 226.389,184.242 216.934,183.096 213.338 C 180.724 205.897,180.146 204.580,178.832 203.620 C 177.159 202.399,172.124 201.948,168.712 202.714 M304.992 202.634 C 302.629 202.925,301.269 203.612,300.545 204.880 C 300.043 205.758,299.649 244.746,300.097 249.098 C 300.487 252.878,301.412 253.594,305.908 253.594 C 311.521 253.594,311.918 252.887,311.958 242.830 L 311.979 237.390 313.016 236.352 C 316.306 233.062,319.955 236.090,323.020 244.654 C 325.510 251.613,327.083 253.434,330.837 253.706 C 336.287 254.100,338.644 251.363,336.520 247.106 C 335.962 245.989,334.910 243.525,334.182 241.630 C 333.454 239.736,332.233 237.149,331.469 235.882 C 329.523 232.656,329.584 231.662,331.890 229.036 C 340.160 219.616,336.600 206.424,324.907 203.164 C 322.546 202.505,308.964 202.144,304.992 202.634 M359.729 202.804 C 356.879 203.607,356.936 203.475,349.009 227.507 C 340.741 252.569,340.890 251.854,343.612 253.262 C 347.773 255.414,351.771 253.353,353.641 248.092 C 354.197 246.529,355.026 244.991,355.649 244.366 L 356.711 243.301 363.005 243.201 C 370.927 243.075,370.953 243.088,373.155 247.829 C 375.511 252.901,377.221 254.041,381.965 253.698 C 387.245 253.316,387.215 252.992,379.773 230.169 C 378.436 226.069,376.136 218.962,374.661 214.374 C 371.755 205.339,371.162 204.066,369.439 203.175 C 367.872 202.365,362.073 202.143,359.729 202.804 M273.134 211.850 C 281.657 215.721,281.644 240.362,273.118 244.236 C 269.694 245.791,265.317 244.714,263.096 241.769 C 259.152 236.539,259.103 220.214,263.016 214.528 C 265.075 211.535,269.729 210.303,273.134 211.850 M321.163 212.706 C 324.615 214.991,325.181 220.776,322.217 223.472 C 319.147 226.265,313.798 226.336,312.433 223.602 C 311.865 222.466,311.825 214.745,312.381 213.525 C 313.382 211.329,318.378 210.863,321.163 212.706 M364.730 219.979 C 365.635 221.314,367.703 228.570,367.702 230.409 C 367.702 232.407,366.490 233.185,363.379 233.185 C 358.964 233.185,358.499 232.018,360.274 225.396 C 362.077 218.670,363.045 217.493,364.730 219.979 M173.598 220.053 C 173.952 220.541,174.660 222.378,175.171 224.135 C 177.273 231.367,176.697 233.185,172.305 233.185 C 167.741 233.185,167.208 231.762,169.184 224.851 C 170.843 219.048,171.976 217.817,173.598 220.053 M240.284 286.200 C 237.207 287.302,229.997 290.570,216.681 296.900 C 197.868 305.844,199.167 305.297,197.161 305.109 C 195.900 304.991,192.714 303.742,186.158 300.798 C 160.855 289.436,148.389 284.544,152.268 287.500 C 155.667 290.090,194.076 310.459,196.674 311.049 C 198.636 311.495,208.854 306.210,231.766 292.901 C 242.922 286.421,245.639 284.283,240.284 286.200 " stroke="none" fill="#f43f5f" fill-rule="evenodd"></path><path id="path1" d="M0.000 177.462 L 0.000 354.925 200.000 354.925 L 400.000 354.925 400.000 177.462 L 400.000 0.000 200.000 0.000 L 0.000 0.000 0.000 177.462 M39.178 43.390 C 39.503 43.901,39.832 46.166,40.094 49.689 C 41.784 72.428,52.797 93.171,86.920 137.888 C 125.501 188.447,134.730 225.564,117.229 259.781 C 113.419 267.229,113.479 267.136,109.650 271.595 C 102.584 279.824,100.513 279.705,101.689 271.140 C 105.567 242.902,92.208 218.861,47.564 173.736 C 29.009 154.981,24.745 150.127,17.940 140.018 C 3.912 119.179,3.668 95.798,17.200 69.033 C 25.262 53.085,36.792 39.633,39.178 43.390 M207.098 63.342 C 226.026 71.260,242.681 78.855,243.294 79.847 C 244.095 81.143,234.299 78.130,207.682 68.893 C 197.639 65.407,197.612 65.405,191.191 67.656 C 143.716 84.296,139.732 84.138,179.237 67.180 C 195.962 60.002,196.052 59.967,198.048 60.110 C 199.054 60.181,202.404 61.378,207.098 63.342 M182.479 118.460 C 194.316 121.714,201.080 132.214,199.507 144.891 C 197.691 159.526,188.337 166.761,171.168 166.808 C 169.230 166.814,168.811 166.943,167.796 167.849 L 166.637 168.884 166.460 177.538 C 166.217 189.375,166.256 189.326,157.257 189.117 C 148.392 188.912,149.246 192.724,149.246 153.327 C 149.246 118.113,149.153 119.687,151.290 118.467 C 153.408 117.256,178.083 117.251,182.479 118.460 M302.858 118.009 C 316.320 120.038,324.442 128.631,326.513 143.035 C 330.054 167.660,322.975 183.741,306.655 188.147 C 302.532 189.260,275.343 189.648,272.683 188.632 C 269.737 187.507,269.934 189.816,269.813 154.925 C 269.678 116.073,269.385 118.355,274.564 117.830 C 279.515 117.328,299.164 117.452,302.858 118.009 M254.371 118.883 C 255.746 119.796,256.078 120.931,256.078 124.723 C 256.078 131.851,256.167 131.807,241.218 132.032 C 225.996 132.261,226.656 131.898,226.860 139.922 C 226.971 144.317,227.001 144.467,227.958 145.423 L 228.941 146.406 238.250 146.584 C 250.261 146.813,250.226 146.793,250.217 153.221 C 250.207 159.746,250.038 159.841,238.137 160.071 L 228.941 160.248 227.958 161.232 C 226.991 162.198,226.972 162.299,226.859 167.143 C 226.661 175.637,226.077 175.333,242.591 175.333 C 257.735 175.333,258.223 175.461,258.131 179.406 C 258.037 183.384,255.353 187.021,251.525 188.357 C 248.771 189.318,219.768 189.332,217.025 188.373 C 214.548 187.508,212.820 185.967,211.646 183.577 L 210.648 181.544 210.648 151.360 C 210.648 117.698,210.489 119.838,213.070 118.702 C 214.765 117.956,253.228 118.124,254.371 118.883 M383.016 119.006 C 384.460 119.986,384.824 121.298,384.679 125.003 C 384.407 131.926,384.188 132.032,370.122 132.032 C 355.251 132.032,355.634 131.842,355.634 139.227 C 355.634 146.694,355.456 146.582,367.311 146.589 C 378.538 146.596,378.882 146.790,378.882 153.122 C 378.882 159.781,378.789 159.835,366.992 160.086 C 355.047 160.340,355.634 159.937,355.634 167.856 L 355.634 172.837 356.670 173.996 L 357.705 175.155 370.794 175.333 C 382.626 175.493,383.978 175.572,384.859 176.150 C 388.212 178.349,386.080 185.490,381.362 187.859 C 377.980 189.558,348.364 189.818,344.809 188.180 C 339.156 185.575,339.502 187.887,339.389 151.994 C 339.282 118.106,339.176 119.748,341.549 118.703 C 343.475 117.855,381.733 118.134,383.016 119.006 M170.364 130.504 C 166.645 131.097,166.459 131.654,166.460 142.225 C 166.461 153.543,166.808 154.256,172.138 153.897 C 175.739 153.655,177.237 153.106,179.259 151.288 C 184.935 146.185,183.108 132.677,176.518 131.025 C 174.803 130.595,171.529 130.318,170.364 130.504 M290.004 130.592 C 286.367 131.197,286.327 131.479,286.486 155.634 C 286.630 177.771,286.059 176.253,294.218 176.173 C 306.100 176.058,310.008 170.448,310.008 153.505 C 310.009 135.367,303.831 128.291,290.004 130.592 M36.716 183.595 C 37.008 184.040,37.484 186.077,37.775 188.121 C 39.703 201.660,45.229 212.198,62.955 236.143 C 76.655 254.649,80.121 259.960,84.342 268.908 C 93.400 288.113,92.913 306.689,82.972 321.106 C 77.786 328.627,75.954 328.360,75.954 320.084 C 75.954 302.557,68.889 290.657,42.591 263.886 C 28.219 249.256,24.073 244.201,20.769 237.287 C 14.514 224.193,16.459 208.862,26.413 192.796 C 31.440 184.683,35.218 181.309,36.716 183.595 M227.329 202.134 C 237.988 203.735,242.228 207.456,238.685 212.101 C 236.783 214.595,235.503 214.809,231.273 213.343 C 218.422 208.890,211.540 214.077,211.540 228.217 C 211.540 239.063,215.356 244.383,223.452 244.824 C 228.099 245.077,229.636 243.771,229.636 239.568 C 229.636 236.239,228.980 235.368,225.747 234.408 C 221.258 233.075,219.503 228.972,222.153 226.004 L 223.188 224.845 228.729 224.731 C 240.045 224.498,241.171 225.890,241.171 240.106 C 241.171 251.704,241.272 251.501,234.783 253.002 C 211.825 258.313,199.258 249.657,199.314 228.571 C 199.363 210.320,210.686 199.635,227.329 202.134 M275.244 202.488 C 285.223 204.593,290.745 212.578,291.597 226.134 C 292.775 244.895,281.683 256.755,265.509 254.028 C 253.715 252.040,248.003 243.647,247.942 228.217 C 247.866 208.943,258.469 198.951,275.244 202.488 M176.347 202.637 C 179.644 203.274,180.138 204.058,183.096 213.338 C 184.242 216.934,187.277 226.389,189.839 234.350 C 195.932 253.277,195.927 253.594,189.534 253.594 C 185.380 253.594,184.414 252.872,181.899 247.884 C 179.519 243.166,179.431 243.124,171.961 243.125 C 164.449 243.126,163.874 243.471,162.040 249.079 C 160.097 255.018,150.460 255.910,150.738 250.125 C 150.793 248.971,163.262 210.164,164.961 205.856 C 166.130 202.894,170.818 201.569,176.347 202.637 M324.907 203.164 C 336.600 206.424,340.160 219.616,331.890 229.036 C 329.584 231.662,329.523 232.656,331.469 235.882 C 332.233 237.149,333.454 239.736,334.182 241.630 C 334.910 243.525,335.962 245.989,336.520 247.106 C 338.644 251.363,336.287 254.100,330.837 253.706 C 327.083 253.434,325.510 251.613,323.020 244.654 C 319.955 236.090,316.306 233.062,313.016 236.352 L 311.979 237.390 311.958 242.830 C 311.918 252.887,311.521 253.594,305.908 253.594 C 299.540 253.594,299.822 254.895,299.977 226.264 C 300.096 204.249,300.059 204.699,301.899 203.493 C 303.867 202.204,320.604 201.964,324.907 203.164 M369.439 203.175 C 371.162 204.066,371.755 205.339,374.661 214.374 C 376.136 218.962,378.436 226.069,379.773 230.169 C 387.215 252.992,387.245 253.316,381.965 253.698 C 377.221 254.041,375.511 252.901,373.155 247.829 C 370.953 243.088,370.927 243.075,363.005 243.201 L 356.711 243.301 355.649 244.366 C 355.026 244.991,354.197 246.529,353.641 248.092 C 351.972 252.786,350.810 253.771,346.939 253.771 C 343.574 253.771,341.775 252.709,341.718 250.690 C 341.674 249.116,356.184 205.500,357.147 204.312 C 358.742 202.345,366.454 201.631,369.439 203.175 M265.901 212.103 C 261.679 214.207,260.376 217.907,260.354 227.862 C 260.326 240.159,262.895 244.914,269.552 244.890 C 276.077 244.866,279.292 239.372,279.306 228.217 C 279.324 214.792,273.808 208.162,265.901 212.103 M313.889 212.074 C 312.274 212.904,311.978 213.911,311.984 218.562 C 311.991 224.513,313.119 226.015,317.244 225.568 C 322.920 224.955,325.730 220.206,323.340 215.269 C 321.826 212.142,316.958 210.497,313.889 212.074 M362.664 219.246 C 361.540 220.534,359.185 228.115,359.184 230.451 C 359.183 232.288,360.559 233.185,363.379 233.185 C 368.003 233.185,368.492 231.955,366.594 225.098 C 365.110 219.741,363.859 217.877,362.664 219.246 M170.782 220.297 C 170.018 221.811,168.396 227.260,168.031 229.538 C 167.651 231.917,169.137 233.185,172.305 233.185 C 176.697 233.185,177.273 231.367,175.171 224.135 C 173.684 219.020,172.119 217.651,170.782 220.297 M242.768 285.684 C 242.768 286.840,203.404 309.502,199.158 310.790 C 196.672 311.544,195.746 311.132,173.736 299.463 C 140.547 281.868,145.092 282.357,186.158 300.798 C 192.714 303.742,195.900 304.991,197.161 305.109 C 199.167 305.297,197.868 305.844,216.681 296.900 C 229.997 290.570,237.207 287.302,240.284 286.200 C 242.991 285.231,242.768 285.277,242.768 285.684 " stroke="none" fill="#fcfbfb" fill-rule="evenodd"></path></g></svg>